<svg preserveAspectRatio="none" width="100%" height="100%" overflow="visible" style="display: block;" viewBox="0 0 16 16" fill="none" xmlns="http://www.w3.org/2000/svg">
<g id="BorderStyleDotted">
<g id="icon">
<mask id="path-1-inside-1_14_12" fill="white">
<path d="M4 8H3V7H4V8ZM6 8H5V7H6V8ZM8 8H7V7H8V8ZM10 8H9V7H10V8ZM12 8H11V7H12V8ZM14 8H13V7H14V8Z"/>
</mask>
<path d="M4 8H3V7H4V8ZM6 8H5V7H6V8ZM8 8H7V7H8V8ZM10 8H9V7H10V8ZM12 8H11V7H12V8ZM14 8H13V7H14V8Z" fill="var(--fill-0, #131313)"/>
<path d="M4 8V9H5V8H4ZM3 8H2V9H3V8ZM3 7V6H2V7H3ZM4 7H5V6H4V7ZM6 8V9H7V8H6ZM5 8H4V9H5V8ZM5 7V6H4V7H5ZM6 7H7V6H6V7ZM8 8V9H9V8H8ZM7 8H6V9H7V8ZM7 7V6H6V7H7ZM8 7H9V6H8V7ZM10 8V9H11V8H10ZM9 8H8V9H9V8ZM9 7V6H8V7H9ZM10 7H11V6H10V7ZM12 8V9H13V8H12ZM11 8H10V9H11V8ZM11 7V6H10V7H11ZM12 7H13V6H12V7ZM14 8V9H15V8H14ZM13 8H12V9H13V8ZM13 7V6H12V7H13ZM14 7H15V6H14V7ZM4 8V7H3V8V9H4V8ZM3 8H4V7H3H2V8H3ZM3 7V8H4V7V6H3V7ZM4 7H3V8H4H5V7H4ZM6 8V7H5V8V9H6V8ZM5 8H6V7H5H4V8H5ZM5 7V8H6V7V6H5V7ZM6 7H5V8H6H7V7H6ZM8 8V7H7V8V9H8V8ZM7 8H8V7H7H6V8H7ZM7 7V8H8V7V6H7V7ZM8 7H7V8H8H9V7H8ZM10 8V7H9V8V9H10V8ZM9 8H10V7H9H8V8H9ZM9 7V8H10V7V6H9V7ZM10 7H9V8H10H11V7H10ZM12 8V7H11V8V9H12V8ZM11 8H12V7H11H10V8H11ZM11 7V8H12V7V6H11V7ZM12 7H11V8H12H13V7H12ZM14 8V7H13V8V9H14V8ZM13 8H14V7H13H12V8H13ZM13 7V8H14V7V6H13V7ZM14 7H13V8H14H15V7H14Z" fill="var(--stroke-0, #383835)" mask="url(#path-1-inside-1_14_12)"/>
</g>
</g>
</svg>
