<svg preserveAspectRatio="none" width="100%" height="100%" overflow="visible" style="display: block;" viewBox="0 0 16 16" fill="none" xmlns="http://www.w3.org/2000/svg">
<g id="BorderStyleDashed">
<g id="icon">
<mask id="path-1-inside-1_14_5" fill="white">
<path d="M5 8H2V7H5V8ZM9.5 8H6.5V7H9.5V8ZM14 8H11V7H14V8Z"/>
</mask>
<path d="M5 8H2V7H5V8ZM9.5 8H6.5V7H9.5V8ZM14 8H11V7H14V8Z" fill="var(--fill-0, #131313)"/>
<path d="M5 8V9H6V8H5ZM2 8H1V9H2V8ZM2 7V6H1V7H2ZM5 7H6V6H5V7ZM9.5 8V9H10.5V8H9.5ZM6.5 8H5.5V9H6.5V8ZM6.5 7V6H5.5V7H6.5ZM9.5 7H10.5V6H9.5V7ZM14 8V9H15V8H14ZM11 8H10V9H11V8ZM11 7V6H10V7H11ZM14 7H15V6H14V7ZM5 8V7H2V8V9H5V8ZM2 8H3V7H2H1V8H2ZM2 7V8H5V7V6H2V7ZM5 7H4V8H5H6V7H5ZM9.5 8V7H6.5V8V9H9.5V8ZM6.5 8H7.5V7H6.5H5.5V8H6.5ZM6.5 7V8H9.5V7V6H6.5V7ZM9.5 7H8.5V8H9.5H10.5V7H9.5ZM14 8V7H11V8V9H14V8ZM11 8H12V7H11H10V8H11ZM11 7V8H14V7V6H11V7ZM14 7H13V8H14H15V7H14Z" fill="var(--stroke-0, #383835)" mask="url(#path-1-inside-1_14_5)"/>
</g>
</g>
</svg>
