<svg preserveAspectRatio="none" width="100%" height="100%" overflow="visible" style="display: block;" viewBox="0 0 148 64" fill="none" xmlns="http://www.w3.org/2000/svg">
<g id="Mask group">
<mask id="mask0_9_6" style="mask-type:alpha" maskUnits="userSpaceOnUse" x="0" y="0" width="148" height="64">
<path id="Exclude" d="M146 0C147.105 0 148 0.895431 148 2V62C148 63.1046 147.105 64 146 64H2C0.895431 64 0 63.1046 0 62V2C0 0.895431 0.895431 2.61729e-08 2 0H146ZM38 22C36.8954 22 36 22.8954 36 24V40C36 41.1046 36.8954 42 38 42H110C111.105 42 112 41.1046 112 40V24C112 22.8954 111.105 22 110 22H38Z" fill="var(--fill-0, #D9D9D9)"/>
</mask>
<g mask="url(#mask0_9_6)">
<g id="Group 48096711">
<path id="Vector 1572" d="M0 0L38 24H110L148 0H0Z" fill="var(--fill-0, white)" fill-opacity="0.06"/>
<path id="Vector 1573" d="M0 64L38 40H110L148 64H0Z" fill="url(#paint0_linear_9_6)"/>
<path id="Vector 1576" d="M148 64L110 40L110 24L148 0L148 64Z" fill="url(#paint1_linear_9_6)"/>
<path id="Vector 1577" d="M0 64L38 40L38 24L2.79753e-06 0L0 64Z" fill="url(#paint2_linear_9_6)"/>
</g>
</g>
</g>
<defs>
<linearGradient id="paint0_linear_9_6" x1="94.4821" y1="42.5" x2="94.4821" y2="64" gradientUnits="userSpaceOnUse">
<stop stop-color="white" stop-opacity="0.13"/>
<stop offset="1" stop-color="white" stop-opacity="0.11"/>
</linearGradient>
<linearGradient id="paint1_linear_9_6" x1="145" y1="64" x2="145" y2="-1.87335e-08" gradientUnits="userSpaceOnUse">
<stop stop-color="white" stop-opacity="0.08"/>
<stop offset="1" stop-color="white" stop-opacity="0.09"/>
</linearGradient>
<linearGradient id="paint2_linear_9_6" x1="3" y1="64" x2="3" y2="-1.87335e-08" gradientUnits="userSpaceOnUse">
<stop stop-color="white" stop-opacity="0.08"/>
<stop offset="1" stop-color="white" stop-opacity="0.09"/>
</linearGradient>
</defs>
</svg>
