<svg preserveAspectRatio="none" width="100%" height="100%" overflow="visible" style="display: block;" viewBox="0 0 224 112" fill="none" xmlns="http://www.w3.org/2000/svg">
<g id="Mask group">
<mask id="mask0_9_19" style="mask-type:alpha" maskUnits="userSpaceOnUse" x="0" y="0" width="224" height="112">
<path id="Exclude" d="M224 112H0V0H224V112ZM40 22C37.7909 22 36 23.7909 36 26V86C36 88.2091 37.7909 90 40 90H184C186.209 90 188 88.2091 188 86V26C188 23.7909 186.209 22 184 22H40Z" fill="var(--fill-0, #D9D9D9)"/>
</mask>
<g mask="url(#mask0_9_19)">
<g id="Group 48096712">
<path id="Vector 1574" d="M0 0L76 48H148L224 0H0Z" fill="url(#paint0_linear_9_19)"/>
<path id="Vector 1575" d="M0 112L76 64H148L224 112H0Z" fill="var(--fill-0, white)" fill-opacity="0.06"/>
<path id="Vector 1579" d="M224 112L148 64L148 48L224 0L224 112Z" fill="url(#paint1_linear_9_19)"/>
<path id="Vector 1578" d="M2.09815e-06 112L76 64L76 48L4.89568e-06 0L2.09815e-06 112Z" fill="url(#paint2_linear_9_19)"/>
</g>
</g>
</g>
<defs>
<linearGradient id="paint0_linear_9_19" x1="143" y1="22" x2="143" y2="4.32038e-08" gradientUnits="userSpaceOnUse">
<stop stop-color="white" stop-opacity="0.11"/>
<stop offset="1" stop-color="white" stop-opacity="0.13"/>
</linearGradient>
<linearGradient id="paint1_linear_9_19" x1="218" y1="112" x2="218" y2="0" gradientUnits="userSpaceOnUse">
<stop stop-color="white" stop-opacity="0.08"/>
<stop offset="1" stop-color="white" stop-opacity="0.09"/>
</linearGradient>
<linearGradient id="paint2_linear_9_19" x1="6" y1="112" x2="6" y2="0" gradientUnits="userSpaceOnUse">
<stop stop-color="white" stop-opacity="0.08"/>
<stop offset="1" stop-color="white" stop-opacity="0.09"/>
</linearGradient>
</defs>
</svg>
