<svg preserveAspectRatio="none" width="100%" height="100%" overflow="visible" style="display: block;" viewBox="0 0 16 16" fill="none" xmlns="http://www.w3.org/2000/svg">
<g id="AlignItemsCenterRow">
<g id="icon">
<path d="M8 7V2.5C8 2.22386 7.77614 2 7.5 2H6.5C6.22386 2 6 2.22386 6 2.5V7L2 7V8L15 8V7H11V4.5C11 4.22386 10.7761 4 10.5 4L9.5 4C9.22386 4 9 4.22386 9 4.5V7H8Z" fill="var(--fill-0, #383835)"/>
<path d="M8 9V13.5C8 13.7761 7.77614 14 7.5 14H6.5C6.22386 14 6 13.7761 6 13.5V9H8Z" fill="var(--fill-0, #383835)"/>
<path d="M10.5 12C10.7761 12 11 11.7761 11 11.5V9H9V11.5C9 11.7761 9.22386 12 9.5 12H10.5Z" fill="var(--fill-0, #383835)"/>
</g>
</g>
</svg>
