<svg preserveAspectRatio="none" width="100%" height="100%" overflow="visible" style="display: block;" viewBox="0 0 16 16" fill="none" xmlns="http://www.w3.org/2000/svg">
<g id="AlignItemsBaselineRow">
<path id="icon" fill-rule="evenodd" clip-rule="evenodd" d="M8 7V3.5C8 3.22386 7.77614 3 7.5 3H5.5C5.22386 3 5 3.22386 5 3.5L5 7H2V8H5V13.5C5 13.7761 5.22386 14 5.5 14H7.5C7.77614 14 8 13.7761 8 13.5V8H9V10.5C9 10.7761 9.22386 11 9.5 11H11.5C11.7761 11 12 10.7761 12 10.5V8L15 8V7L12 7V3.5C12 3.22386 11.7761 3 11.5 3H9.5C9.22386 3 9 3.22386 9 3.5V7H8ZM6 4V7H7V4L6 4ZM10 7H11V4L10 4V7Z" fill="var(--fill-0, #383835)"/>
</g>
</svg>
