<svg preserveAspectRatio="none" width="100%" height="100%" overflow="visible" style="display: block;" viewBox="0 0 16 16" fill="none" xmlns="http://www.w3.org/2000/svg">
<g id="Hide">
<g id="icon">
<path fill-rule="evenodd" clip-rule="evenodd" d="M10.705 11.4121L13.6464 14.3536L14.3536 13.6464L2.35355 1.64645L1.64645 2.35355L4.38809 5.0952C3.39354 5.7612 2.59319 6.69432 2.08964 7.79148C2.02887 7.92388 2.02888 8.07621 2.08965 8.20861C3.11615 10.4451 5.37597 12 8.00001 12C8.9654 12 9.88149 11.7895 10.705 11.4121ZM9.94073 10.6478L5.11151 5.81862C4.25764 6.34656 3.55887 7.10168 3.09961 8.00004C4.01048 9.78173 5.86346 11 8.00001 11C8.68307 11 9.33715 10.8755 9.94073 10.6478Z" fill="var(--fill-0, #383835)"/>
<path d="M13.9104 8.20852C13.5777 8.93349 13.1154 9.58684 12.553 10.1388L11.846 9.43181C12.2702 9.01681 12.6276 8.53367 12.9004 7.99996C11.9896 6.21827 10.1366 5 8.00004 5C7.81173 5 7.62562 5.00946 7.44216 5.02794L6.57166 4.15745C7.03126 4.05439 7.50928 4 8.00004 4C10.6241 4 12.8839 5.55488 13.9104 7.79139C13.9712 7.9238 13.9712 8.07612 13.9104 8.20852Z" fill="var(--fill-0, #383835)"/>
</g>
</g>
</svg>
