<svg preserveAspectRatio="none" width="100%" height="100%" overflow="visible" style="display: block;" viewBox="0 0 16 16" fill="none" xmlns="http://www.w3.org/2000/svg">
<g id="JustifyContentSpaceAroundRow">
<g id="icon">
<path d="M2 14V1H3V14H2Z" fill="var(--fill-0, #383835)"/>
<path d="M4.5 4C4.22386 4 4 4.22386 4 4.5L4 10.5C4 10.7761 4.22386 11 4.5 11H5.5C5.77614 11 6 10.7761 6 10.5L6 4.5C6 4.22386 5.77614 4 5.5 4L4.5 4Z" fill="var(--fill-0, #383835)"/>
<path d="M11.5 11C11.2239 11 11 10.7761 11 10.5V4.5C11 4.22386 11.2239 4 11.5 4L12.5 4C12.7761 4 13 4.22386 13 4.5V10.5C13 10.7761 12.7761 11 12.5 11H11.5Z" fill="var(--fill-0, #383835)"/>
<path d="M14 14V1H15V14H14Z" fill="var(--fill-0, #383835)"/>
</g>
</g>
</svg>
